#!OML:ASF H:\Terrain\Patient Classification 1\Terrain2\Thursday\justin.ASF
:FULLY-SPECIFIED
:DEGREES
1764
root -1.29824 20.2411 -11.1773 517.896 -265.207 -201.612
lowerback 6.70515 0.306735 1.71857
upperback 3.11427 0.627653 2.22282
thorax -0.556904 0.353772 1.2763
lowerneck -10.5099 -3.00404 -9.59269
upperneck 41.6184 -0.968392 3.53371
head 17.0767 -0.734914 3.39277
rclavicle 1.38155e-014 -1.35174e-014
rhumerus -35.4252 -17.2102 -71.8172
rradius 25.8458
rwrist -7.95233
rhand -20.6649 12.0006
rfingers 7.12502
rthumb 5.69787 -17.9028
lclavicle 1.38155e-014 -1.35174e-014
lhumerus -36.4084 6.15354 84.6554
lradius 29.7839
lwrist 2.89261
lhand -20.2933 19.4551
lfingers 7.12502
lthumb 6.05664 49.3485
rfemur -20.2084 -8.59135 18.1824
rtibia 65.6731
rfoot -6.28809 6.846
rtoes 6.0046
lfemur -12.4369 2.85956 -21.0899
ltibia 34.5933
lfoot -16.4578 -9.4523
ltoes 27.5052
1765
root -1.23229 20.2514 -11.194 521.379 -265.603 -197.876
lowerback 6.82819 0.291909 1.34277
upperback 3.20573 0.585792 2.10632
thorax -0.533154 0.330644 1.36987
lowerneck -10.5204 -3.07377 -9.56479
upperneck 41.6957 -1.02426 3.43083
head 17.1301 -0.765807 3.33577
rclavicle 7.45443e-015 2.98177e-014
rhumerus -35.5408 -17.3757 -71.5936
rradius 25.5129
rwrist -7.94282
rhand -20.829 12.5264
rfingers 7.12502
rthumb 5.53949 -17.3812
lclavicle 7.45443e-015 2.98177e-014
lhumerus -36.2624 5.83848 84.7652
lradius 29.7782
lwrist 2.79593
lhand -20.0574 19.1269
lfingers 7.12502
lthumb 6.28443 49.0137
rfemur -20.9321 -8.29708 17.2747
rtibia 67.2768
rfoot -5.93334 7.83622
rtoes 13.5202
lfemur -11.6605 2.83451 -21.5965
ltibia 34.0976
lfoot -16.4873 -9.47399
ltoes 26.3785
1766
root -1.16695 20.2531 -11.1999 537.211 -265.949 -182.068
lowerback 6.56052 0.319469 -0.0185819
upperback 3.25186 0.524127 1.79455
thorax -0.345195 0.28469 1.81977
lowerneck -10.5678 -3.05348 -9.48613
upperneck 41.8355 -0.931063 3.29414
head 17.2127 -0.733109 3.28204
rclavicle 6.95746e-016 -1.59028e-015
rhumerus -35.5338 -17.3125 -71.564
rradius 25.2332
rwrist -8.07483
rhand -20.9404 13.2429
rfingers 7.12502
rthumb 5.43186 -16.6675
lclavicle 6.95746e-016 -1.59028e-015
lhumerus -36.0268 6.08915 84.6159
lradius 29.5825
lwrist 2.49261
lhand -20.2636 19.0027
lfingers 7.12502
lthumb 6.08532 48.8953
rfemur -22.132 -8.09509 15.7482
rtibia 68.7519
rfoot -6.53206 8.53886
rtoes 15.9345
lfemur -11.2713 2.74954 -22.9259
ltibia 33.6914
lfoot -16.4346 -9.5517
ltoes 26.2464
1767
root -1.08975 20.2479 -11.1814 537.542 -266.175 -181.547
lowerback 6.39821 0.24267 -0.519791
upperback 3.34897 0.394009 1.88222
thorax -0.154101 0.212757 2.20194
lowerneck -10.511 -2.99911 -9.61715
upperneck 41.9275 -0.806895 3.32132
head 17.2429 -0.698199 3.34375
rclavicle 5.56597e-015 -1.11319e-014
rhumerus -35.649 -17.7807 -71.3215
rradius 25.0459
rwrist -7.24442
rhand -20.8252 12.8068
rfingers 7.12502
rthumb 5.54311 -17.1007
lclavicle 5.56597e-015 -1.11319e-014
lhumerus -35.895 6.66577 84.3987
lradius 29.3451
lwrist 2.01864
lhand -19.6131 18.8699
lfingers 7.12502
lthumb 6.71328 48.7435
rfemur -22.8965 -8.16327 15.8974
rtibia 69.8656
rfoot -8.3654 8.40985
rtoes 11.7829
lfemur -10.6545 2.59427 -22.9078
ltibia 33.4258
lfoot -16.4965 -9.67015
ltoes 25.8466
1768
root -1.00368 20.2423 -11.1879 537.11 -266.249 -181.783
lowerback 6.22438 0.143186 -0.620522
upperback 3.41973 0.256361 1.927
thorax 0.0206503 0.141212 2.31422
lowerneck -10.4437 -2.93922 -9.75481
upperneck 42.0093 -0.637695 3.25308
head 17.2614 -0.659046 3.36913
rclavicle -4.47266e-015 4.77083e-015
rhumerus -35.7173 -17.7127 -71.2144
rradius 24.885
rwrist -6.8548
rhand -20.5929 12.2256
rfingers 7.12502
rthumb 5.76743 -17.6759
lclavicle -4.47266e-015 4.77083e-015
lhumerus -35.9376 7.12006 84.2368
lradius 29.3047
lwrist 1.81343
lhand -18.6675 18.7521
lfingers 7.12502
lthumb 7.62607 48.5946
rfemur -23.5613 -8.47956 15.9499
rtibia 70.7648
rfoot -10.1124 8.56368
rtoes 7.54402
lfemur -10.0205 2.55346 -22.9498
ltibia 33.2456
lfoot -16.7273 -9.63819
ltoes 25.5298
1769
root -0.943076 20.2389 -11.1844 532.585 -266.779 -186.043
lowerback 6.48157 -0.0471018 -0.605024
upperback 3.42121 0.00823376 1.9568
thorax -0.109135 0.0192136 2.3519
lowerneck -10.3146 -2.92566 -9.53692
upperneck 42.1051 -0.623335 3.13307
head 17.277 -0.632111 3.28104
rclavicle -7.65321e-015 -1.03368e-014
rhumerus -35.9461 -17.9223 -71.1866
rradius 24.713
rwrist -6.65443
rhand -20.2582 12.1171
rfingers 7.12502
rthumb 6.09052 -17.7753
lclavicle -7.65321e-015 -1.03368e-014
lhumerus -35.9826 6.99166 84.0285
lradius 29.3059
lwrist 1.86368
lhand -19.2313 18.5966
lfingers 7.12502
lthumb 7.08191 48.4581
rfemur -24.1975 -9.0169 16.2808
rtibia 71.5973
rfoot -11.0514 8.4412
rtoes 4.55969
lfemur -9.54279 2.37298 -22.6918
ltibia 33.1828
lfoot -16.9138 -9.9857
ltoes 26.431
1770
root -0.873933 20.2339 -11.1898 524.893 -267.109 -193.488
lowerback 6.59157 -0.106103 -0.405087
upperback 3.47674 -0.0539764 2.03385
thorax -0.110372 -0.00847279 2.32316
lowerneck -10.1606 -2.99066 -9.23724
upperneck 42.1577 -0.744438 2.98251
head 17.2723 -0.649174 3.13965
rclavicle -4.96962e-015 -1.47101e-014
rhumerus -36.3651 -18.6103 -70.8497
rradius 24.6882
rwrist -6.17601
rhand -20.0918 12.0849
rfingers 7.12502
rthumb 6.25119 -17.8028
lclavicle -4.96962e-015 -1.47101e-014
lhumerus -35.9064 6.77121 83.9575
lradius 29.2589
lwrist 1.73308
lhand -19.8546 18.5653
lfingers 7.12502
lthumb 6.48022 48.4461
rfemur -24.7071 -9.36417 16.7143
rtibia 72.3187
rfoot -11.6169 8.06229
rtoes 2.83126
lfemur -8.91716 1.98265 -22.3771
ltibia 33.0832
lfoot -17.3719 -9.83461
ltoes 25.7089
